<svg width="30" height="25" viewBox="0 0 30 25" fill="none" xmlns="http://www.w3.org/2000/svg">
<path fill-rule="evenodd" clip-rule="evenodd" d="M19.8125 5.46875C19.8125 4.43275 19.3186 3.43918 18.4396 2.70661C17.5605 1.97405 16.3682 1.5625 15.125 1.5625C13.8818 1.5625 12.6895 1.97405 11.8104 2.70661C10.9314 3.43918 10.4375 4.43275 10.4375 5.46875V6.25H19.8125V5.46875ZM21.6875 5.46875V6.25H28.25V21.875C28.25 22.7038 27.8549 23.4987 27.1516 24.0847C26.4484 24.6708 25.4946 25 24.5 25H5.75C4.75544 25 3.80161 24.6708 3.09835 24.0847C2.39509 23.4987 2 22.7038 2 21.875V6.25H8.5625V5.46875C8.5625 4.01835 9.2539 2.62735 10.4846 1.60176C11.7153 0.57617 13.3845 0 15.125 0C16.8655 0 18.5347 0.57617 19.7654 1.60176C20.9961 2.62735 21.6875 4.01835 21.6875 5.46875ZM20.4762 13.8344C20.6523 13.6877 20.7512 13.4887 20.7512 13.2812C20.7512 13.0738 20.6523 12.8748 20.4762 12.7281C20.3002 12.5814 20.0615 12.499 19.8125 12.499C19.5635 12.499 19.3248 12.5814 19.1488 12.7281L14.1875 16.8641L12.0387 15.0719C11.9516 14.9992 11.8481 14.9416 11.7342 14.9023C11.6203 14.863 11.4983 14.8428 11.375 14.8428C11.2517 14.8428 11.1297 14.863 11.0158 14.9023C10.9019 14.9416 10.7984 14.9992 10.7113 15.0719C10.6241 15.1445 10.5549 15.2307 10.5078 15.3257C10.4606 15.4206 10.4363 15.5223 10.4363 15.625C10.4363 15.7277 10.4606 15.8294 10.5078 15.9243C10.5549 16.0193 10.6241 16.1055 10.7113 16.1781L13.5238 18.5219C13.6108 18.5946 13.7143 18.6524 13.8282 18.6917C13.9421 18.7311 14.0642 18.7514 14.1875 18.7514C14.3108 18.7514 14.4329 18.7311 14.5468 18.6917C14.6607 18.6524 14.7642 18.5946 14.8512 18.5219L20.4762 13.8344Z" fill="#E1DFDC"/>
</svg>
