<svg width="15" height="13" viewBox="0 0 15 13" fill="none" xmlns="http://www.w3.org/2000/svg">
<path d="M1.40625 0.875C0.629883 0.875 0 1.50488 0 2.28125C0 2.72363 0.208008 3.13965 0.5625 3.40625L6.9375 8.1875C7.27148 8.43652 7.72852 8.43652 8.0625 8.1875L14.4375 3.40625C14.792 3.13965 15 2.72363 15 2.28125C15 1.50488 14.3701 0.875 13.5938 0.875H1.40625ZM0 4.15625V10.25C0 11.2842 0.84082 12.125 1.875 12.125H13.125C14.1592 12.125 15 11.2842 15 10.25V4.15625L8.625 8.9375C7.95703 9.43848 7.04297 9.43848 6.375 8.9375L0 4.15625Z" fill="#E1DFDC"/>
</svg>
