<svg width="34" height="26" viewBox="0 0 34 26" fill="none" xmlns="http://www.w3.org/2000/svg">
<path d="M0 2.92354C0 1.7712 1.08527 0.84021 2.42857 0.84021H31.5714C32.9147 0.84021 34 1.7712 34 2.92354C34 4.07589 32.9147 5.00688 31.5714 5.00688H2.42857C1.08527 5.00688 0 4.07589 0 2.92354ZM0 13.3402C0 12.1879 1.08527 11.2569 2.42857 11.2569H31.5714C32.9147 11.2569 34 12.1879 34 13.3402C34 14.4926 32.9147 15.4235 31.5714 15.4235H2.42857C1.08527 15.4235 0 14.4926 0 13.3402ZM34 23.7569C34 24.9092 32.9147 25.8402 31.5714 25.8402H2.42857C1.08527 25.8402 0 24.9092 0 23.7569C0 22.6045 1.08527 21.6735 2.42857 21.6735H31.5714C32.9147 21.6735 34 22.6045 34 23.7569Z" fill="#E1DFDC"/>
</svg>
