<svg width="15" height="15" viewBox="0 0 15 15" fill="none" xmlns="http://www.w3.org/2000/svg">
<path d="M4.83105 0.721364C4.60547 0.176442 4.01074 -0.113597 3.44238 0.0416762L0.864258 0.744801C0.354492 0.885426 0 1.34832 0 1.87566C0 9.12371 5.87695 15.0007 13.125 15.0007C13.6523 15.0007 14.1152 14.6462 14.2559 14.1364L14.959 11.5583C15.1143 10.9899 14.8242 10.3952 14.2793 10.1696L11.4668 8.99773C10.9893 8.79851 10.4355 8.93621 10.1104 9.33757L8.92676 10.7819C6.86426 9.80632 5.19434 8.1364 4.21875 6.0739L5.66309 4.89324C6.06445 4.56511 6.20215 4.01433 6.00293 3.53679L4.83105 0.724293V0.721364Z" fill="#E1DFDC"/>
</svg>
