<svg width="23" height="30" viewBox="0 0 23 30" fill="none" xmlns="http://www.w3.org/2000/svg">
<path d="M20.4088 8.82422C21.1534 8.0918 21.1534 6.90234 20.4088 6.16992C19.6642 5.4375 18.4549 5.4375 17.7103 6.16992L11.4375 12.3457L5.1588 6.17578C4.41417 5.44336 3.2049 5.44336 2.46027 6.17578C1.71564 6.9082 1.71564 8.09766 2.46027 8.83008L8.73898 15L2.46622 21.1758C1.72159 21.9082 1.72159 23.0977 2.46622 23.8301C3.21085 24.5625 4.42013 24.5625 5.16476 23.8301L11.4375 17.6543L17.7162 23.8242C18.4609 24.5566 19.6701 24.5566 20.4148 23.8242C21.1594 23.0918 21.1594 21.9023 20.4148 21.1699L14.136 15L20.4088 8.82422Z" fill="#F4CE14"/>
</svg>
